<mxfile host="app.diagrams.net" modified="2024-05-12T18:44:19.150Z" agent="Mozilla/5.0 (Windows NT 10.0; Win64; x64) AppleWebKit/537.36 (KHTML, like Gecko) Chrome/124.0.0.0 Safari/537.36" etag="K8dDGYwEydec2nhvLYwd" version="24.4.0" type="google">
  <diagram name="Page-1" id="Ty8ftfkOapMrZJiVaauw">
    <mxGraphModel grid="1" page="1" gridSize="10" guides="1" tooltips="1" connect="1" arrows="1" fold="1" pageScale="1" pageWidth="850" pageHeight="1100" math="0" shadow="0">
      <root>
        <mxCell id="0" />
        <mxCell id="1" parent="0" />
        <mxCell id="mTf_gobl3aBkkReJTlGz-1" value="&lt;span style=&quot;font-size: 20px;&quot;&gt;&lt;b&gt;&lt;i&gt;ejercicio_03b_JSONSimple&lt;/i&gt;&lt;/b&gt;&lt;/span&gt;" style="text;html=1;align=center;verticalAlign=middle;resizable=0;points=[];autosize=1;strokeColor=none;fillColor=none;" vertex="1" parent="1">
          <mxGeometry x="1600" y="-1210" width="280" height="40" as="geometry" />
        </mxCell>
        <mxCell id="mTf_gobl3aBkkReJTlGz-2" style="edgeStyle=orthogonalEdgeStyle;rounded=0;orthogonalLoop=1;jettySize=auto;html=1;entryX=0.5;entryY=0;entryDx=0;entryDy=0;endSize=12;startSize=12;" edge="1" parent="1" target="mTf_gobl3aBkkReJTlGz-20">
          <mxGeometry relative="1" as="geometry">
            <mxPoint x="1360" y="-1760" as="sourcePoint" />
            <mxPoint x="1540" y="-1690" as="targetPoint" />
            <Array as="points">
              <mxPoint x="1360" y="-1720" />
              <mxPoint x="1540" y="-1720" />
            </Array>
          </mxGeometry>
        </mxCell>
        <mxCell id="mTf_gobl3aBkkReJTlGz-3" value="Biblioteca&#xa;" style="swimlane;fontStyle=0;align=center;verticalAlign=top;childLayout=stackLayout;horizontal=1;startSize=30;horizontalStack=0;resizeParent=1;resizeLast=0;collapsible=1;marginBottom=0;rounded=0;shadow=0;strokeWidth=1;fillColor=#fff2cc;strokeColor=#d6b656;" vertex="1" parent="1">
          <mxGeometry x="1160" y="-1900" width="280" height="140" as="geometry">
            <mxRectangle x="110" y="-20" width="160" height="26" as="alternateBounds" />
          </mxGeometry>
        </mxCell>
        <mxCell id="mTf_gobl3aBkkReJTlGz-4" value="" style="line;html=1;strokeWidth=1;align=left;verticalAlign=middle;spacingTop=-1;spacingLeft=3;spacingRight=3;rotatable=0;labelPosition=right;points=[];portConstraint=eastwest;" vertex="1" parent="mTf_gobl3aBkkReJTlGz-3">
          <mxGeometry y="30" width="280" height="8" as="geometry" />
        </mxCell>
        <mxCell id="mTf_gobl3aBkkReJTlGz-5" value="+ agregarSocio( socio : Socio )" style="text;align=left;verticalAlign=top;spacingLeft=4;spacingRight=4;overflow=hidden;rotatable=0;points=[[0,0.5],[1,0.5]];portConstraint=eastwest;rounded=0;shadow=0;html=0;" vertex="1" parent="mTf_gobl3aBkkReJTlGz-3">
          <mxGeometry y="38" width="280" height="22" as="geometry" />
        </mxCell>
        <mxCell id="mTf_gobl3aBkkReJTlGz-6" value="+ exportarSocios() : String" style="text;align=left;verticalAlign=top;spacingLeft=4;spacingRight=4;overflow=hidden;rotatable=0;points=[[0,0.5],[1,0.5]];portConstraint=eastwest;rounded=0;shadow=0;html=0;" vertex="1" parent="mTf_gobl3aBkkReJTlGz-3">
          <mxGeometry y="60" width="280" height="22" as="geometry" />
        </mxCell>
        <mxCell id="mTf_gobl3aBkkReJTlGz-7" value="+ getExporter() : VoorheesExporter" style="text;align=left;verticalAlign=top;spacingLeft=4;spacingRight=4;overflow=hidden;rotatable=0;points=[[0,0.5],[1,0.5]];portConstraint=eastwest;rounded=0;shadow=0;html=0;" vertex="1" parent="mTf_gobl3aBkkReJTlGz-3">
          <mxGeometry y="82" width="280" height="22" as="geometry" />
        </mxCell>
        <mxCell id="mTf_gobl3aBkkReJTlGz-8" value="+ setExporter( exporter : VoorheesExporter )" style="text;align=left;verticalAlign=top;spacingLeft=4;spacingRight=4;overflow=hidden;rotatable=0;points=[[0,0.5],[1,0.5]];portConstraint=eastwest;rounded=0;shadow=0;html=0;" vertex="1" parent="mTf_gobl3aBkkReJTlGz-3">
          <mxGeometry y="104" width="280" height="22" as="geometry" />
        </mxCell>
        <mxCell id="mTf_gobl3aBkkReJTlGz-9" value="SocioÂ &#xa;" style="swimlane;fontStyle=0;align=center;verticalAlign=top;childLayout=stackLayout;horizontal=1;startSize=30;horizontalStack=0;resizeParent=1;resizeLast=0;collapsible=1;marginBottom=0;rounded=0;shadow=0;strokeWidth=1;fillColor=#fff2cc;strokeColor=#d6b656;" vertex="1" parent="1">
          <mxGeometry x="960" y="-1680" width="280" height="260" as="geometry">
            <mxRectangle x="110" y="-20" width="160" height="26" as="alternateBounds" />
          </mxGeometry>
        </mxCell>
        <mxCell id="mTf_gobl3aBkkReJTlGz-10" value="- nombre : String" style="text;align=left;verticalAlign=top;spacingLeft=4;spacingRight=4;overflow=hidden;rotatable=0;points=[[0,0.5],[1,0.5]];portConstraint=eastwest;rounded=0;shadow=0;html=0;" vertex="1" parent="mTf_gobl3aBkkReJTlGz-9">
          <mxGeometry y="30" width="280" height="22" as="geometry" />
        </mxCell>
        <mxCell id="mTf_gobl3aBkkReJTlGz-11" value="- legajo : String" style="text;align=left;verticalAlign=top;spacingLeft=4;spacingRight=4;overflow=hidden;rotatable=0;points=[[0,0.5],[1,0.5]];portConstraint=eastwest;rounded=0;shadow=0;html=0;" vertex="1" parent="mTf_gobl3aBkkReJTlGz-9">
          <mxGeometry y="52" width="280" height="22" as="geometry" />
        </mxCell>
        <mxCell id="mTf_gobl3aBkkReJTlGz-12" value="- email : String" style="text;align=left;verticalAlign=top;spacingLeft=4;spacingRight=4;overflow=hidden;rotatable=0;points=[[0,0.5],[1,0.5]];portConstraint=eastwest;rounded=0;shadow=0;html=0;" vertex="1" parent="mTf_gobl3aBkkReJTlGz-9">
          <mxGeometry y="74" width="280" height="22" as="geometry" />
        </mxCell>
        <mxCell id="mTf_gobl3aBkkReJTlGz-13" value="" style="line;html=1;strokeWidth=1;align=left;verticalAlign=middle;spacingTop=-1;spacingLeft=3;spacingRight=3;rotatable=0;labelPosition=right;points=[];portConstraint=eastwest;" vertex="1" parent="mTf_gobl3aBkkReJTlGz-9">
          <mxGeometry y="96" width="280" height="8" as="geometry" />
        </mxCell>
        <mxCell id="mTf_gobl3aBkkReJTlGz-14" value="+ getNombre() : String" style="text;align=left;verticalAlign=top;spacingLeft=4;spacingRight=4;overflow=hidden;rotatable=0;points=[[0,0.5],[1,0.5]];portConstraint=eastwest;rounded=0;shadow=0;html=0;" vertex="1" parent="mTf_gobl3aBkkReJTlGz-9">
          <mxGeometry y="104" width="280" height="26" as="geometry" />
        </mxCell>
        <mxCell id="mTf_gobl3aBkkReJTlGz-15" value="+ setNombre( nombre : String )" style="text;align=left;verticalAlign=top;spacingLeft=4;spacingRight=4;overflow=hidden;rotatable=0;points=[[0,0.5],[1,0.5]];portConstraint=eastwest;rounded=0;shadow=0;html=0;" vertex="1" parent="mTf_gobl3aBkkReJTlGz-9">
          <mxGeometry y="130" width="280" height="22" as="geometry" />
        </mxCell>
        <mxCell id="mTf_gobl3aBkkReJTlGz-16" value="+ getEmail() : String" style="text;align=left;verticalAlign=top;spacingLeft=4;spacingRight=4;overflow=hidden;rotatable=0;points=[[0,0.5],[1,0.5]];portConstraint=eastwest;rounded=0;shadow=0;html=0;" vertex="1" parent="mTf_gobl3aBkkReJTlGz-9">
          <mxGeometry y="152" width="280" height="22" as="geometry" />
        </mxCell>
        <mxCell id="mTf_gobl3aBkkReJTlGz-17" value="+ setEmail( nombre : String )" style="text;align=left;verticalAlign=top;spacingLeft=4;spacingRight=4;overflow=hidden;rotatable=0;points=[[0,0.5],[1,0.5]];portConstraint=eastwest;rounded=0;shadow=0;html=0;" vertex="1" parent="mTf_gobl3aBkkReJTlGz-9">
          <mxGeometry y="174" width="280" height="22" as="geometry" />
        </mxCell>
        <mxCell id="mTf_gobl3aBkkReJTlGz-18" value="+ getLegajo() : String" style="text;align=left;verticalAlign=top;spacingLeft=4;spacingRight=4;overflow=hidden;rotatable=0;points=[[0,0.5],[1,0.5]];portConstraint=eastwest;rounded=0;shadow=0;html=0;" vertex="1" parent="mTf_gobl3aBkkReJTlGz-9">
          <mxGeometry y="196" width="280" height="22" as="geometry" />
        </mxCell>
        <mxCell id="mTf_gobl3aBkkReJTlGz-19" value="+ setLegajo( nombre : String )" style="text;align=left;verticalAlign=top;spacingLeft=4;spacingRight=4;overflow=hidden;rotatable=0;points=[[0,0.5],[1,0.5]];portConstraint=eastwest;rounded=0;shadow=0;html=0;" vertex="1" parent="mTf_gobl3aBkkReJTlGz-9">
          <mxGeometry y="218" width="280" height="22" as="geometry" />
        </mxCell>
        <mxCell id="mTf_gobl3aBkkReJTlGz-20" value="VoorheesExporter&#xa;" style="swimlane;fontStyle=0;align=center;verticalAlign=top;childLayout=stackLayout;horizontal=1;startSize=30;horizontalStack=0;resizeParent=1;resizeLast=0;collapsible=1;marginBottom=0;rounded=0;shadow=0;strokeWidth=1;fillColor=#fff2cc;strokeColor=#d6b656;" vertex="1" parent="1">
          <mxGeometry x="1400" y="-1680" width="280" height="100" as="geometry">
            <mxRectangle x="110" y="-20" width="160" height="26" as="alternateBounds" />
          </mxGeometry>
        </mxCell>
        <mxCell id="mTf_gobl3aBkkReJTlGz-21" value="" style="line;html=1;strokeWidth=1;align=left;verticalAlign=middle;spacingTop=-1;spacingLeft=3;spacingRight=3;rotatable=0;labelPosition=right;points=[];portConstraint=eastwest;" vertex="1" parent="mTf_gobl3aBkkReJTlGz-20">
          <mxGeometry y="30" width="280" height="8" as="geometry" />
        </mxCell>
        <mxCell id="mTf_gobl3aBkkReJTlGz-22" value="- exportar( socio : Socio ) : String" style="text;align=left;verticalAlign=top;spacingLeft=4;spacingRight=4;overflow=hidden;rotatable=0;points=[[0,0.5],[1,0.5]];portConstraint=eastwest;rounded=0;shadow=0;html=0;" vertex="1" parent="mTf_gobl3aBkkReJTlGz-20">
          <mxGeometry y="38" width="280" height="26" as="geometry" />
        </mxCell>
        <mxCell id="mTf_gobl3aBkkReJTlGz-23" value="+ exportar( socios : Socios[*] ) : String" style="text;align=left;verticalAlign=top;spacingLeft=4;spacingRight=4;overflow=hidden;rotatable=0;points=[[0,0.5],[1,0.5]];portConstraint=eastwest;rounded=0;shadow=0;html=0;" vertex="1" parent="mTf_gobl3aBkkReJTlGz-20">
          <mxGeometry y="64" width="280" height="22" as="geometry" />
        </mxCell>
        <mxCell id="mTf_gobl3aBkkReJTlGz-24" style="edgeStyle=orthogonalEdgeStyle;rounded=0;orthogonalLoop=1;jettySize=auto;html=1;endSize=12;startSize=12;entryX=0.5;entryY=0;entryDx=0;entryDy=0;exitX=0.25;exitY=1;exitDx=0;exitDy=0;" edge="1" parent="1" source="mTf_gobl3aBkkReJTlGz-3" target="mTf_gobl3aBkkReJTlGz-9">
          <mxGeometry relative="1" as="geometry">
            <mxPoint x="1300" y="-1740" as="sourcePoint" />
            <mxPoint x="1090" y="-1680" as="targetPoint" />
            <Array as="points">
              <mxPoint x="1230" y="-1720" />
              <mxPoint x="1100" y="-1720" />
            </Array>
          </mxGeometry>
        </mxCell>
        <mxCell id="mTf_gobl3aBkkReJTlGz-25" value="&lt;span style=&quot;font-size: 20px;&quot;&gt;&lt;b&gt;&lt;i style=&quot;font-size: 1px;&quot;&gt;.&lt;/i&gt;&lt;/b&gt;&lt;/span&gt;" style="text;html=1;align=center;verticalAlign=middle;resizable=0;points=[];autosize=1;strokeColor=none;fillColor=none;" vertex="1" parent="1">
          <mxGeometry x="920" y="-1920" width="20" height="40" as="geometry" />
        </mxCell>
        <mxCell id="mTf_gobl3aBkkReJTlGz-41" style="edgeStyle=orthogonalEdgeStyle;rounded=0;orthogonalLoop=1;jettySize=auto;html=1;entryX=0.5;entryY=0;entryDx=0;entryDy=0;dashed=1;strokeColor=none;" edge="1" parent="1" source="mTf_gobl3aBkkReJTlGz-26" target="mTf_gobl3aBkkReJTlGz-34">
          <mxGeometry relative="1" as="geometry" />
        </mxCell>
        <mxCell id="mTf_gobl3aBkkReJTlGz-42" style="edgeStyle=orthogonalEdgeStyle;rounded=0;orthogonalLoop=1;jettySize=auto;html=1;entryX=0.5;entryY=0;entryDx=0;entryDy=0;dashed=1;endSize=12;startSize=5;" edge="1" parent="1" source="mTf_gobl3aBkkReJTlGz-26" target="mTf_gobl3aBkkReJTlGz-34">
          <mxGeometry relative="1" as="geometry" />
        </mxCell>
        <mxCell id="mTf_gobl3aBkkReJTlGz-44" style="edgeStyle=orthogonalEdgeStyle;rounded=0;orthogonalLoop=1;jettySize=auto;html=1;endSize=12;startSize=12;endArrow=block;endFill=0;" edge="1" parent="1" source="mTf_gobl3aBkkReJTlGz-26" target="mTf_gobl3aBkkReJTlGz-20">
          <mxGeometry relative="1" as="geometry">
            <Array as="points">
              <mxPoint x="1400" y="-1540" />
              <mxPoint x="1540" y="-1540" />
            </Array>
          </mxGeometry>
        </mxCell>
        <mxCell id="mTf_gobl3aBkkReJTlGz-26" value="JSONSimpleAdapter&#xa;" style="swimlane;fontStyle=0;align=center;verticalAlign=top;childLayout=stackLayout;horizontal=1;startSize=30;horizontalStack=0;resizeParent=1;resizeLast=0;collapsible=1;marginBottom=0;rounded=0;shadow=0;strokeWidth=1;fillColor=#fff2cc;strokeColor=#d6b656;" vertex="1" parent="1">
          <mxGeometry x="1280" y="-1500" width="240" height="100" as="geometry">
            <mxRectangle x="110" y="-20" width="160" height="26" as="alternateBounds" />
          </mxGeometry>
        </mxCell>
        <mxCell id="mTf_gobl3aBkkReJTlGz-27" value="" style="line;html=1;strokeWidth=1;align=left;verticalAlign=middle;spacingTop=-1;spacingLeft=3;spacingRight=3;rotatable=0;labelPosition=right;points=[];portConstraint=eastwest;" vertex="1" parent="mTf_gobl3aBkkReJTlGz-26">
          <mxGeometry y="30" width="240" height="8" as="geometry" />
        </mxCell>
        <mxCell id="mTf_gobl3aBkkReJTlGz-28" value="- exportar( socio : Socio ) : String" style="text;align=left;verticalAlign=top;spacingLeft=4;spacingRight=4;overflow=hidden;rotatable=0;points=[[0,0.5],[1,0.5]];portConstraint=eastwest;rounded=0;shadow=0;html=0;" vertex="1" parent="mTf_gobl3aBkkReJTlGz-26">
          <mxGeometry y="38" width="240" height="26" as="geometry" />
        </mxCell>
        <mxCell id="mTf_gobl3aBkkReJTlGz-29" value="+ exportar( socios : Socios[*] ) : String" style="text;align=left;verticalAlign=top;spacingLeft=4;spacingRight=4;overflow=hidden;rotatable=0;points=[[0,0.5],[1,0.5]];portConstraint=eastwest;rounded=0;shadow=0;html=0;" vertex="1" parent="mTf_gobl3aBkkReJTlGz-26">
          <mxGeometry y="64" width="240" height="22" as="geometry" />
        </mxCell>
        <mxCell id="mTf_gobl3aBkkReJTlGz-43" style="edgeStyle=orthogonalEdgeStyle;rounded=0;orthogonalLoop=1;jettySize=auto;html=1;entryX=0.5;entryY=0;entryDx=0;entryDy=0;dashed=1;endSize=12;startSize=5;" edge="1" parent="1" source="mTf_gobl3aBkkReJTlGz-30" target="mTf_gobl3aBkkReJTlGz-38">
          <mxGeometry relative="1" as="geometry" />
        </mxCell>
        <mxCell id="mTf_gobl3aBkkReJTlGz-45" style="edgeStyle=orthogonalEdgeStyle;rounded=0;orthogonalLoop=1;jettySize=auto;html=1;endSize=12;startSize=12;endArrow=block;endFill=0;" edge="1" parent="1" source="mTf_gobl3aBkkReJTlGz-30" target="mTf_gobl3aBkkReJTlGz-20">
          <mxGeometry relative="1" as="geometry">
            <Array as="points">
              <mxPoint x="1680" y="-1540" />
              <mxPoint x="1540" y="-1540" />
            </Array>
          </mxGeometry>
        </mxCell>
        <mxCell id="mTf_gobl3aBkkReJTlGz-30" value="JacksonAdapter&#xa;" style="swimlane;fontStyle=0;align=center;verticalAlign=top;childLayout=stackLayout;horizontal=1;startSize=30;horizontalStack=0;resizeParent=1;resizeLast=0;collapsible=1;marginBottom=0;rounded=0;shadow=0;strokeWidth=1;fillColor=#fff2cc;strokeColor=#d6b656;" vertex="1" parent="1">
          <mxGeometry x="1560" y="-1500" width="240" height="100" as="geometry">
            <mxRectangle x="110" y="-20" width="160" height="26" as="alternateBounds" />
          </mxGeometry>
        </mxCell>
        <mxCell id="mTf_gobl3aBkkReJTlGz-31" value="" style="line;html=1;strokeWidth=1;align=left;verticalAlign=middle;spacingTop=-1;spacingLeft=3;spacingRight=3;rotatable=0;labelPosition=right;points=[];portConstraint=eastwest;" vertex="1" parent="mTf_gobl3aBkkReJTlGz-30">
          <mxGeometry y="30" width="240" height="8" as="geometry" />
        </mxCell>
        <mxCell id="mTf_gobl3aBkkReJTlGz-32" value="- exportar( socio : Socio ) : String" style="text;align=left;verticalAlign=top;spacingLeft=4;spacingRight=4;overflow=hidden;rotatable=0;points=[[0,0.5],[1,0.5]];portConstraint=eastwest;rounded=0;shadow=0;html=0;" vertex="1" parent="mTf_gobl3aBkkReJTlGz-30">
          <mxGeometry y="38" width="240" height="26" as="geometry" />
        </mxCell>
        <mxCell id="mTf_gobl3aBkkReJTlGz-33" value="+ exportar( socios : Socios[*] ) : String" style="text;align=left;verticalAlign=top;spacingLeft=4;spacingRight=4;overflow=hidden;rotatable=0;points=[[0,0.5],[1,0.5]];portConstraint=eastwest;rounded=0;shadow=0;html=0;" vertex="1" parent="mTf_gobl3aBkkReJTlGz-30">
          <mxGeometry y="64" width="240" height="22" as="geometry" />
        </mxCell>
        <mxCell id="mTf_gobl3aBkkReJTlGz-34" value="JSONSimpleÂ &#xa;" style="swimlane;fontStyle=0;align=center;verticalAlign=top;childLayout=stackLayout;horizontal=1;startSize=30;horizontalStack=0;resizeParent=1;resizeLast=0;collapsible=1;marginBottom=0;rounded=0;shadow=0;strokeWidth=1;fillColor=#fff2cc;strokeColor=#d6b656;" vertex="1" parent="1">
          <mxGeometry x="1310" y="-1320" width="180" height="60" as="geometry">
            <mxRectangle x="110" y="-20" width="160" height="26" as="alternateBounds" />
          </mxGeometry>
        </mxCell>
        <mxCell id="mTf_gobl3aBkkReJTlGz-35" value="" style="line;html=1;strokeWidth=1;align=left;verticalAlign=middle;spacingTop=-1;spacingLeft=3;spacingRight=3;rotatable=0;labelPosition=right;points=[];portConstraint=eastwest;" vertex="1" parent="mTf_gobl3aBkkReJTlGz-34">
          <mxGeometry y="30" width="180" height="8" as="geometry" />
        </mxCell>
        <mxCell id="mTf_gobl3aBkkReJTlGz-38" value="Jackson&#xa;" style="swimlane;fontStyle=0;align=center;verticalAlign=top;childLayout=stackLayout;horizontal=1;startSize=30;horizontalStack=0;resizeParent=1;resizeLast=0;collapsible=1;marginBottom=0;rounded=0;shadow=0;strokeWidth=1;fillColor=#fff2cc;strokeColor=#d6b656;" vertex="1" parent="1">
          <mxGeometry x="1590" y="-1320" width="180" height="60" as="geometry">
            <mxRectangle x="110" y="-20" width="160" height="26" as="alternateBounds" />
          </mxGeometry>
        </mxCell>
        <mxCell id="mTf_gobl3aBkkReJTlGz-39" value="" style="line;html=1;strokeWidth=1;align=left;verticalAlign=middle;spacingTop=-1;spacingLeft=3;spacingRight=3;rotatable=0;labelPosition=right;points=[];portConstraint=eastwest;" vertex="1" parent="mTf_gobl3aBkkReJTlGz-38">
          <mxGeometry y="30" width="180" height="8" as="geometry" />
        </mxCell>
        <mxCell id="mTf_gobl3aBkkReJTlGz-50" value="&lt;font size=&quot;1&quot; style=&quot;&quot;&gt;&lt;b style=&quot;&quot;&gt;&lt;i style=&quot;font-size: 17px;&quot;&gt;Client&lt;/i&gt;&lt;/b&gt;&lt;/font&gt;" style="text;html=1;align=center;verticalAlign=middle;whiteSpace=wrap;rounded=0;" vertex="1" parent="1">
          <mxGeometry x="1160" y="-1920" width="60" height="20" as="geometry" />
        </mxCell>
        <mxCell id="mTf_gobl3aBkkReJTlGz-51" value="&lt;b style=&quot;font-size: x-small;&quot;&gt;&lt;i style=&quot;font-size: 15px;&quot;&gt;Adapter&lt;/i&gt;&lt;/b&gt;" style="text;html=1;align=center;verticalAlign=middle;whiteSpace=wrap;rounded=0;" vertex="1" parent="1">
          <mxGeometry x="1280" y="-1520" width="70" height="20" as="geometry" />
        </mxCell>
        <mxCell id="mTf_gobl3aBkkReJTlGz-52" value="&lt;b style=&quot;font-size: x-small;&quot;&gt;&lt;i style=&quot;font-size: 15px;&quot;&gt;Adapter&lt;/i&gt;&lt;/b&gt;" style="text;html=1;align=center;verticalAlign=middle;whiteSpace=wrap;rounded=0;" vertex="1" parent="1">
          <mxGeometry x="1560" y="-1520" width="70" height="20" as="geometry" />
        </mxCell>
        <mxCell id="mTf_gobl3aBkkReJTlGz-53" value="&lt;b style=&quot;font-size: x-small;&quot;&gt;&lt;i style=&quot;font-size: 15px;&quot;&gt;Adaptee&lt;/i&gt;&lt;/b&gt;" style="text;html=1;align=center;verticalAlign=middle;whiteSpace=wrap;rounded=0;" vertex="1" parent="1">
          <mxGeometry x="1320" y="-1340" width="70" height="20" as="geometry" />
        </mxCell>
        <mxCell id="mTf_gobl3aBkkReJTlGz-54" value="&lt;b style=&quot;font-size: x-small;&quot;&gt;&lt;i style=&quot;font-size: 15px;&quot;&gt;Adaptee&lt;/i&gt;&lt;/b&gt;" style="text;html=1;align=center;verticalAlign=middle;whiteSpace=wrap;rounded=0;" vertex="1" parent="1">
          <mxGeometry x="1600" y="-1340" width="70" height="20" as="geometry" />
        </mxCell>
        <mxCell id="mTf_gobl3aBkkReJTlGz-56" value="&lt;b style=&quot;font-size: x-small;&quot;&gt;&lt;i style=&quot;font-size: 15px;&quot;&gt;Target&lt;/i&gt;&lt;/b&gt;" style="text;html=1;align=center;verticalAlign=middle;whiteSpace=wrap;rounded=0;" vertex="1" parent="1">
          <mxGeometry x="1400" y="-1700" width="60" height="20" as="geometry" />
        </mxCell>
        <mxCell id="mTf_gobl3aBkkReJTlGz-57" value="&lt;b style=&quot;&quot;&gt;&lt;i&gt;&lt;font style=&quot;font-size: 20px;&quot;&gt;Patron Adapter&lt;/font&gt;&lt;/i&gt;&lt;/b&gt;" style="text;html=1;align=center;verticalAlign=middle;resizable=0;points=[];autosize=1;strokeColor=none;fillColor=none;" vertex="1" parent="1">
          <mxGeometry x="895" y="-1980" width="170" height="40" as="geometry" />
        </mxCell>
      </root>
    </mxGraphModel>
  </diagram>
</mxfile>
